<?xml version="1.0" encoding="UTF-8" standalone="no"?>
<!DOCTYPE svg PUBLIC "-//W3C//DTD SVG 1.1//EN"
 "http://www.w3.org/Graphics/SVG/1.1/DTD/svg11.dtd">
<!-- Generated by graphviz version 2.43.0 (0)
 -->
<!-- Title: G Pages: 1 -->
<svg width="1216pt" height="444pt"
 viewBox="0.00 0.00 1215.50 444.00" xmlns="http://www.w3.org/2000/svg" xmlns:xlink="http://www.w3.org/1999/xlink">
<g id="graph0" class="graph" transform="scale(1 1) rotate(0) translate(4 440)">
<title>G</title>
<polygon fill="white" stroke="transparent" points="-4,4 -4,-440 1211.5,-440 1211.5,4 -4,4"/>
<!-- farm_agroforestry_association -->
<g id="node1" class="node">
<title>farm_agroforestry_association</title>
<text text-anchor="start" x="530.5" y="-145.4" font-family="Bitstream-Vera Sans" font-size="7.00">farm_agroforestry_association</text>
<polygon fill="none" stroke="black" points="525,-139 525,-141 647,-141 647,-139 525,-139"/>
<text text-anchor="start" x="527" y="-131.4" font-family="Bitstream-Vera Sans" font-size="7.00">&#45; farm_id : INTEGER</text>
<text text-anchor="start" x="527" y="-119.4" font-family="Bitstream-Vera Sans" font-size="7.00">&#45; agroforestry_type_id : INTEGER</text>
<polygon fill="none" stroke="black" points="524,-114 524,-154 648,-154 648,-114 524,-114"/>
</g>
<!-- species_agroforestry_association -->
<g id="node2" class="node">
<title>species_agroforestry_association</title>
<text text-anchor="start" x="697" y="-145.4" font-family="Bitstream-Vera Sans" font-size="7.00">species_agroforestry_association</text>
<polygon fill="none" stroke="black" points="695,-139 695,-141 820,-141 820,-139 695,-139"/>
<text text-anchor="start" x="697" y="-131.4" font-family="Bitstream-Vera Sans" font-size="7.00">&#45; species_id : INTEGER</text>
<text text-anchor="start" x="697" y="-119.4" font-family="Bitstream-Vera Sans" font-size="7.00">&#45; agroforestry_type_id : INTEGER</text>
<polygon fill="none" stroke="black" points="693.5,-114 693.5,-154 820.5,-154 820.5,-114 693.5,-114"/>
</g>
<!-- species_soil_texture_association -->
<g id="node3" class="node">
<title>species_soil_texture_association</title>
<text text-anchor="start" x="408" y="-35.4" font-family="Bitstream-Vera Sans" font-size="7.00">species_soil_texture_association</text>
<polygon fill="none" stroke="black" points="406,-29 406,-31 530,-31 530,-29 406,-29"/>
<text text-anchor="start" x="408" y="-21.4" font-family="Bitstream-Vera Sans" font-size="7.00">&#45; species_id : INTEGER</text>
<text text-anchor="start" x="408" y="-9.4" font-family="Bitstream-Vera Sans" font-size="7.00">&#45; soil_texture_id : INTEGER</text>
<polygon fill="none" stroke="black" points="405,-4 405,-44 531,-44 531,-4 405,-4"/>
</g>
<!-- farms -->
<g id="node4" class="node">
<title>farms</title>
<text text-anchor="start" x="308" y="-423.4" font-family="Bitstream-Vera Sans" font-size="7.00">farms</text>
<polygon fill="none" stroke="black" points="258,-417 258,-419 379,-419 379,-417 258,-417"/>
<text text-anchor="start" x="260" y="-409.4" font-family="Bitstream-Vera Sans" font-size="7.00">&#45; id : INTEGER</text>
<text text-anchor="start" x="260" y="-397.4" font-family="Bitstream-Vera Sans" font-size="7.00">&#45; rainfall_mm : INTEGER</text>
<text text-anchor="start" x="260" y="-385.4" font-family="Bitstream-Vera Sans" font-size="7.00">&#45; temperature_celsius : INTEGER</text>
<text text-anchor="start" x="260" y="-373.4" font-family="Bitstream-Vera Sans" font-size="7.00">&#45; elevation_m : INTEGER</text>
<text text-anchor="start" x="260" y="-361.4" font-family="Bitstream-Vera Sans" font-size="7.00">&#45; ph : FLOAT</text>
<text text-anchor="start" x="260" y="-349.4" font-family="Bitstream-Vera Sans" font-size="7.00">&#45; soil_texture_id : INTEGER</text>
<text text-anchor="start" x="260" y="-337.4" font-family="Bitstream-Vera Sans" font-size="7.00">&#45; area_ha : FLOAT</text>
<text text-anchor="start" x="260" y="-325.4" font-family="Bitstream-Vera Sans" font-size="7.00">&#45; latitude : FLOAT</text>
<text text-anchor="start" x="260" y="-313.4" font-family="Bitstream-Vera Sans" font-size="7.00">&#45; longitude : FLOAT</text>
<text text-anchor="start" x="260" y="-301.4" font-family="Bitstream-Vera Sans" font-size="7.00">&#45; coastal : BOOLEAN</text>
<text text-anchor="start" x="260" y="-289.4" font-family="Bitstream-Vera Sans" font-size="7.00">&#45; riparian : BOOLEAN</text>
<text text-anchor="start" x="260" y="-277.4" font-family="Bitstream-Vera Sans" font-size="7.00">&#45; nitrogen_fixing : BOOLEAN</text>
<text text-anchor="start" x="260" y="-265.4" font-family="Bitstream-Vera Sans" font-size="7.00">&#45; shade_tolerant : BOOLEAN</text>
<text text-anchor="start" x="260" y="-253.4" font-family="Bitstream-Vera Sans" font-size="7.00">&#45; bank_stabilising : BOOLEAN</text>
<text text-anchor="start" x="260" y="-241.4" font-family="Bitstream-Vera Sans" font-size="7.00">&#45; slope : FLOAT</text>
<text text-anchor="start" x="260" y="-229.4" font-family="Bitstream-Vera Sans" font-size="7.00">&#45; user_id : INTEGER</text>
<polygon fill="none" stroke="black" points="256.5,-224 256.5,-432 379.5,-432 379.5,-224 256.5,-224"/>
</g>
<!-- farms&#45;&gt;farm_agroforestry_association -->
<g id="edge2" class="edge">
<title>farms&#45;&gt;farm_agroforestry_association</title>
<path fill="none" stroke="black" d="M397.58,-248C397.58,-248 521,-248 521,-248 521,-248 521,-191.64 521,-158.18"/>
<polygon fill="none" stroke="black" points="397.58,-244.5 387.58,-248 397.58,-251.5 397.58,-244.5"/>
<text text-anchor="middle" x="513" y="-160.58" font-family="Bitstream-Vera Sans" font-size="7.00">+ id</text>
<text text-anchor="middle" x="405.58" y="-250.4" font-family="Bitstream-Vera Sans" font-size="7.00">+ farm_id</text>
</g>
<!-- soil_textures -->
<g id="node6" class="node">
<title>soil_textures</title>
<text text-anchor="start" x="39" y="-145.4" font-family="Bitstream-Vera Sans" font-size="7.00">soil_textures</text>
<polygon fill="none" stroke="black" points="21,-139 21,-141 105,-141 105,-139 21,-139"/>
<text text-anchor="start" x="23" y="-131.4" font-family="Bitstream-Vera Sans" font-size="7.00">&#45; id : INTEGER</text>
<text text-anchor="start" x="23" y="-119.4" font-family="Bitstream-Vera Sans" font-size="7.00">&#45; name : VARCHAR(15)</text>
<polygon fill="none" stroke="black" points="20,-114 20,-154 106,-154 106,-114 20,-114"/>
</g>
<!-- farms&#45;&gt;soil_textures -->
<g id="edge7" class="edge">
<title>farms&#45;&gt;soil_textures</title>
<path fill="none" stroke="black" d="M238.32,-328C238.32,-328 63,-328 63,-328 63,-328 63,-166.18 63,-166.18"/>
<polygon fill="black" stroke="black" points="238.32,-328 248.32,-332.5 243.32,-328 248.32,-328 248.32,-328 248.32,-328 243.32,-328 248.32,-323.5 238.32,-328 238.32,-328"/>
<ellipse fill="none" stroke="black" cx="63" cy="-162.18" rx="4" ry="4"/>
<text text-anchor="middle" x="55" y="-160.58" font-family="Bitstream-Vera Sans" font-size="7.00">+ id</text>
<text text-anchor="middle" x="216.82" y="-330.4" font-family="Bitstream-Vera Sans" font-size="7.00">+ soil_texture_id</text>
</g>
<!-- boundary -->
<g id="node7" class="node">
<title>boundary</title>
<text text-anchor="start" x="208" y="-145.4" font-family="Bitstream-Vera Sans" font-size="7.00">boundary</text>
<polygon fill="none" stroke="black" points="153,-139 153,-141 298,-141 298,-139 153,-139"/>
<text text-anchor="start" x="155" y="-131.4" font-family="Bitstream-Vera Sans" font-size="7.00">&#45; id : INTEGER</text>
<text text-anchor="start" x="155" y="-119.4" font-family="Bitstream-Vera Sans" font-size="7.00">&#45; boundary : geometry(POLYGON,4326)</text>
<polygon fill="none" stroke="black" points="151.5,-114 151.5,-154 298.5,-154 298.5,-114 151.5,-114"/>
</g>
<!-- farms&#45;&gt;boundary -->
<g id="edge9" class="edge">
<title>farms&#45;&gt;boundary</title>
<path fill="none" stroke="black" d="M277.5,-209.94C277.5,-209.94 277.5,-158.06 277.5,-158.06"/>
<polygon fill="none" stroke="black" points="274,-209.94 277.5,-219.94 281,-209.94 274,-209.94"/>
<text text-anchor="middle" x="269.5" y="-160.46" font-family="Bitstream-Vera Sans" font-size="7.00">+ id</text>
<text text-anchor="middle" x="269.5" y="-214.34" font-family="Bitstream-Vera Sans" font-size="7.00">+ id</text>
</g>
<!-- users -->
<g id="node9" class="node">
<title>users</title>
<text text-anchor="start" x="401.5" y="-157.4" font-family="Bitstream-Vera Sans" font-size="7.00">users</text>
<polygon fill="none" stroke="black" points="345,-151 345,-153 478,-153 478,-151 345,-151"/>
<text text-anchor="start" x="347" y="-143.4" font-family="Bitstream-Vera Sans" font-size="7.00">&#45; id : INTEGER</text>
<text text-anchor="start" x="347" y="-131.4" font-family="Bitstream-Vera Sans" font-size="7.00">&#45; name : VARCHAR(255)</text>
<text text-anchor="start" x="347" y="-119.4" font-family="Bitstream-Vera Sans" font-size="7.00">&#45; email : VARCHAR(255)</text>
<text text-anchor="start" x="347" y="-107.4" font-family="Bitstream-Vera Sans" font-size="7.00">&#45; hashed_password : VARCHAR(255)</text>
<polygon fill="none" stroke="black" points="343.5,-102 343.5,-166 478.5,-166 478.5,-102 343.5,-102"/>
</g>
<!-- farms&#45;&gt;users -->
<g id="edge8" class="edge">
<title>farms&#45;&gt;users</title>
<path fill="none" stroke="black" d="M361.5,-209.94C361.5,-209.94 361.5,-178.19 361.5,-178.19"/>
<polygon fill="black" stroke="black" points="361.5,-180.19 366,-170.19 361.5,-175.19 361.5,-170.19 361.5,-170.19 361.5,-170.19 361.5,-175.19 357,-170.19 361.5,-180.19 361.5,-180.19"/>
<ellipse fill="none" stroke="black" cx="361.5" cy="-215.94" rx="4" ry="4"/>
<text text-anchor="middle" x="353.5" y="-214.34" font-family="Bitstream-Vera Sans" font-size="7.00">+ id</text>
<text text-anchor="middle" x="344" y="-172.59" font-family="Bitstream-Vera Sans" font-size="7.00">+ user_id</text>
</g>
<!-- species -->
<g id="node5" class="node">
<title>species</title>
<text text-anchor="start" x="801" y="-423.4" font-family="Bitstream-Vera Sans" font-size="7.00">species</text>
<polygon fill="none" stroke="black" points="745,-417 745,-419 885,-419 885,-417 745,-417"/>
<text text-anchor="start" x="747" y="-409.4" font-family="Bitstream-Vera Sans" font-size="7.00">&#45; id : INTEGER</text>
<text text-anchor="start" x="747" y="-397.4" font-family="Bitstream-Vera Sans" font-size="7.00">&#45; name : VARCHAR</text>
<text text-anchor="start" x="747" y="-385.4" font-family="Bitstream-Vera Sans" font-size="7.00">&#45; common_name : VARCHAR</text>
<text text-anchor="start" x="747" y="-373.4" font-family="Bitstream-Vera Sans" font-size="7.00">&#45; rainfall_mm_min : INTEGER</text>
<text text-anchor="start" x="747" y="-361.4" font-family="Bitstream-Vera Sans" font-size="7.00">&#45; rainfall_mm_max : INTEGER</text>
<text text-anchor="start" x="747" y="-349.4" font-family="Bitstream-Vera Sans" font-size="7.00">&#45; temperature_celsius_min : INTEGER</text>
<text text-anchor="start" x="747" y="-337.4" font-family="Bitstream-Vera Sans" font-size="7.00">&#45; temperature_celsius_max : INTEGER</text>
<text text-anchor="start" x="747" y="-325.4" font-family="Bitstream-Vera Sans" font-size="7.00">&#45; elevation_m_min : INTEGER</text>
<text text-anchor="start" x="747" y="-313.4" font-family="Bitstream-Vera Sans" font-size="7.00">&#45; elevation_m_max : INTEGER</text>
<text text-anchor="start" x="747" y="-301.4" font-family="Bitstream-Vera Sans" font-size="7.00">&#45; ph_min : FLOAT</text>
<text text-anchor="start" x="747" y="-289.4" font-family="Bitstream-Vera Sans" font-size="7.00">&#45; ph_max : FLOAT</text>
<text text-anchor="start" x="747" y="-277.4" font-family="Bitstream-Vera Sans" font-size="7.00">&#45; coastal : BOOLEAN</text>
<text text-anchor="start" x="747" y="-265.4" font-family="Bitstream-Vera Sans" font-size="7.00">&#45; riparian : BOOLEAN</text>
<text text-anchor="start" x="747" y="-253.4" font-family="Bitstream-Vera Sans" font-size="7.00">&#45; nitrogen_fixing : BOOLEAN</text>
<text text-anchor="start" x="747" y="-241.4" font-family="Bitstream-Vera Sans" font-size="7.00">&#45; shade_tolerant : BOOLEAN</text>
<text text-anchor="start" x="747" y="-229.4" font-family="Bitstream-Vera Sans" font-size="7.00">&#45; bank_stabilising : BOOLEAN</text>
<polygon fill="none" stroke="black" points="744,-224 744,-432 886,-432 886,-224 744,-224"/>
</g>
<!-- species&#45;&gt;species_agroforestry_association -->
<g id="edge4" class="edge">
<title>species&#45;&gt;species_agroforestry_association</title>
<path fill="none" stroke="black" d="M782.25,-209.94C782.25,-209.94 782.25,-158.06 782.25,-158.06"/>
<polygon fill="none" stroke="black" points="778.75,-209.94 782.25,-219.94 785.75,-209.94 778.75,-209.94"/>
<text text-anchor="middle" x="774.25" y="-160.46" font-family="Bitstream-Vera Sans" font-size="7.00">+ id</text>
<text text-anchor="middle" x="759.25" y="-214.34" font-family="Bitstream-Vera Sans" font-size="7.00">+ species_id</text>
</g>
<!-- species&#45;&gt;species_soil_texture_association -->
<g id="edge6" class="edge">
<title>species&#45;&gt;species_soil_texture_association</title>
<path fill="none" stroke="black" d="M725.83,-276C725.83,-276 501.25,-276 501.25,-276 501.25,-276 501.25,-111.24 501.25,-48.16"/>
<polygon fill="none" stroke="black" points="725.83,-279.5 735.83,-276 725.83,-272.5 725.83,-279.5"/>
<text text-anchor="middle" x="493.25" y="-50.56" font-family="Bitstream-Vera Sans" font-size="7.00">+ id</text>
<text text-anchor="middle" x="712.83" y="-278.4" font-family="Bitstream-Vera Sans" font-size="7.00">+ species_id</text>
</g>
<!-- soil_textures&#45;&gt;species_soil_texture_association -->
<g id="edge5" class="edge">
<title>soil_textures&#45;&gt;species_soil_texture_association</title>
<path fill="none" stroke="black" d="M63,-99.86C63,-99.86 63,-24 63,-24 63,-24 280.84,-24 396.99,-24"/>
<polygon fill="none" stroke="black" points="59.5,-99.86 63,-109.86 66.5,-99.86 59.5,-99.86"/>
<text text-anchor="middle" x="388.99" y="-26.4" font-family="Bitstream-Vera Sans" font-size="7.00">+ id</text>
<text text-anchor="middle" x="31.5" y="-104.26" font-family="Bitstream-Vera Sans" font-size="7.00">+ soil_texture_id</text>
</g>
<!-- agroforestry_types -->
<g id="node8" class="node">
<title>agroforestry_types</title>
<text text-anchor="start" x="552" y="-339.4" font-family="Bitstream-Vera Sans" font-size="7.00">agroforestry_types</text>
<polygon fill="none" stroke="black" points="535,-333 535,-335 639,-335 639,-333 535,-333"/>
<text text-anchor="start" x="537" y="-325.4" font-family="Bitstream-Vera Sans" font-size="7.00">&#45; id : INTEGER</text>
<text text-anchor="start" x="537" y="-313.4" font-family="Bitstream-Vera Sans" font-size="7.00">&#45; type_name : VARCHAR(15)</text>
<polygon fill="none" stroke="black" points="534,-308 534,-348 640,-348 640,-308 534,-308"/>
</g>
<!-- agroforestry_types&#45;&gt;farm_agroforestry_association -->
<g id="edge1" class="edge">
<title>agroforestry_types&#45;&gt;farm_agroforestry_association</title>
<path fill="none" stroke="black" d="M587,-293.82C587,-293.82 587,-158.18 587,-158.18"/>
<polygon fill="none" stroke="black" points="583.5,-293.82 587,-303.82 590.5,-293.82 583.5,-293.82"/>
<text text-anchor="middle" x="579" y="-160.58" font-family="Bitstream-Vera Sans" font-size="7.00">+ id</text>
<text text-anchor="middle" x="544.5" y="-298.22" font-family="Bitstream-Vera Sans" font-size="7.00">+ agroforestry_type_id</text>
</g>
<!-- agroforestry_types&#45;&gt;species_agroforestry_association -->
<g id="edge3" class="edge">
<title>agroforestry_types&#45;&gt;species_agroforestry_association</title>
<path fill="none" stroke="black" d="M658.15,-328C658.15,-328 710.75,-328 710.75,-328 710.75,-328 710.75,-210.18 710.75,-158.18"/>
<polygon fill="none" stroke="black" points="658.15,-324.5 648.15,-328 658.15,-331.5 658.15,-324.5"/>
<text text-anchor="middle" x="702.75" y="-160.58" font-family="Bitstream-Vera Sans" font-size="7.00">+ id</text>
<text text-anchor="middle" x="690.65" y="-330.4" font-family="Bitstream-Vera Sans" font-size="7.00">+ agroforestry_type_id</text>
</g>
<!-- alembic_version -->
<g id="node10" class="node">
<title>alembic_version</title>
<text text-anchor="start" x="957" y="-333.4" font-family="Bitstream-Vera Sans" font-size="7.00">alembic_version</text>
<polygon fill="none" stroke="black" points="932,-327 932,-329 1042,-329 1042,-327 932,-327"/>
<text text-anchor="start" x="934" y="-319.4" font-family="Bitstream-Vera Sans" font-size="7.00">&#45; version_num : VARCHAR(32)</text>
<polygon fill="none" stroke="black" points="931,-314 931,-342 1043,-342 1043,-314 931,-314"/>
</g>
<!-- spatial_ref_sys -->
<g id="node11" class="node">
<title>spatial_ref_sys</title>
<text text-anchor="start" x="1117" y="-357.4" font-family="Bitstream-Vera Sans" font-size="7.00">spatial_ref_sys</text>
<polygon fill="none" stroke="black" points="1090,-351 1090,-353 1199,-353 1199,-351 1090,-351"/>
<text text-anchor="start" x="1092" y="-343.4" font-family="Bitstream-Vera Sans" font-size="7.00">&#45; srid : INTEGER</text>
<text text-anchor="start" x="1092" y="-331.4" font-family="Bitstream-Vera Sans" font-size="7.00">&#45; auth_name : VARCHAR(256)</text>
<text text-anchor="start" x="1092" y="-319.4" font-family="Bitstream-Vera Sans" font-size="7.00">&#45; auth_srid : INTEGER</text>
<text text-anchor="start" x="1092" y="-307.4" font-family="Bitstream-Vera Sans" font-size="7.00">&#45; srtext : VARCHAR(2048)</text>
<text text-anchor="start" x="1092" y="-295.4" font-family="Bitstream-Vera Sans" font-size="7.00">&#45; proj4text : VARCHAR(2048)</text>
<polygon fill="none" stroke="black" points="1088.5,-290 1088.5,-366 1199.5,-366 1199.5,-290 1088.5,-290"/>
</g>
</g>
</svg>
